HIERARCHY
ROOT Hips
{
	OFFSET 0.000000 0.000000 0.000000
	CHANNELS 6 Xposition Yposition Zposition Zrotation Yrotation Xrotation 
	JOINT LHipJoint
	{
		OFFSET 0.000000 0.000000 0.000000
		CHANNELS 3 Zrotation Yrotation Xrotation
		JOINT LeftUpLeg
		{
			OFFSET 1.363060 -1.794630 0.839290
			CHANNELS 3 Zrotation Yrotation Xrotation
			JOINT LeftLeg
			{
				OFFSET 2.448110 -6.726130 0.000000
				CHANNELS 3 Zrotation Yrotation Xrotation
				JOINT LeftFoot
				{
					OFFSET 2.562200 -7.039590 0.000000
					CHANNELS 3 Zrotation Yrotation Xrotation
					JOINT LeftToeBase
					{
						OFFSET 0.157640 -0.433110 2.322550
						CHANNELS 3 Zrotation Yrotation Xrotation
						End Site
						{
							OFFSET 0.000000 0.000000 0.000000
						}
					}
				}
			}
		}
	}
	JOINT RHipJoint
	{
		OFFSET 0.000000 0.000000 0.000000
		CHANNELS 3 Zrotation Yrotation Xrotation
		JOINT RightUpLeg
		{
			OFFSET -1.305520 -1.794630 0.839290
			CHANNELS 3 Zrotation Yrotation Xrotation
			JOINT RightLeg
			{
				OFFSET -2.542530 -6.985550 0.000000
				CHANNELS 3 Zrotation Yrotation Xrotation
				JOINT RightFoot
				{
					OFFSET -2.568260 -7.056230 0.000000
					CHANNELS 3 Zrotation Yrotation Xrotation
					JOINT RightToeBase
					{
						OFFSET -0.164730 -0.452590 2.363150
						CHANNELS 3 Zrotation Yrotation Xrotation
						End Site
						{
							OFFSET 0.000000 0.000000 0.000000
						}
					}
				}
			}
		}
	}
	JOINT LowerBack
	{
		OFFSET 0.000000 0.000000 0.000000
		CHANNELS 3 Zrotation Yrotation Xrotation
		JOINT Spine
		{
			OFFSET 0.028270 2.035590 -0.193380
			CHANNELS 3 Zrotation Yrotation Xrotation
			JOINT Spine1
			{
				OFFSET 0.056720 2.048850 -0.042750
				CHANNELS 3 Zrotation Yrotation Xrotation
				JOINT Neck
				{
					OFFSET 0.000000 0.000000 0.000000
					CHANNELS 3 Zrotation Yrotation Xrotation
					JOINT Neck1
					{
						OFFSET -0.054170 1.746240 0.172020
						CHANNELS 3 Zrotation Yrotation Xrotation
						JOINT Head
						{
							OFFSET 0.104070 1.761360 -0.123970
							CHANNELS 3 Zrotation Yrotation Xrotation
							End Site
							{
								OFFSET 0.000000 0.000000 0.000000
							}
						}
					}
				}
				JOINT LeftShoulder
				{
					OFFSET 0.000000 0.000000 0.000000
					CHANNELS 3 Zrotation Yrotation Xrotation
					JOINT LeftArm
					{
						OFFSET 3.362410 1.200890 -0.311210
						CHANNELS 3 Zrotation Yrotation Xrotation
						JOINT LeftForeArm
						{
							OFFSET 4.983000 -0.000000 -0.000000
							CHANNELS 3 Zrotation Yrotation Xrotation
							JOINT LeftHand
							{
								OFFSET 3.483560 -0.000000 -0.000000
								CHANNELS 3 Zrotation Yrotation Xrotation
								JOINT LeftFingerBase
								{
									OFFSET 0.000000 0.000000 0.000000
									CHANNELS 3 Zrotation Yrotation Xrotation
									JOINT LeftHandIndex1
									{
										OFFSET 0.715260 -0.000000 -0.000000
										CHANNELS 3 Zrotation Yrotation Xrotation
										End Site
										{
											OFFSET 0.000000 0.000000 0.000000
										}
									}
								}
								JOINT LThumb
								{
									OFFSET 0.000000 0.000000 0.000000
									CHANNELS 3 Zrotation Yrotation Xrotation
									End Site
									{
										OFFSET 0.000000 0.000000 0.000000
									}
								}
							}
						}
					}
				}
				JOINT RightShoulder
				{
					OFFSET 0.000000 0.000000 0.000000
					CHANNELS 3 Zrotation Yrotation Xrotation
					JOINT RightArm
					{
						OFFSET -3.136600 1.374050 -0.404650
						CHANNELS 3 Zrotation Yrotation Xrotation
						JOINT RightForeArm
						{
							OFFSET -5.241900 -0.000000 -0.000000
							CHANNELS 3 Zrotation Yrotation Xrotation
							JOINT RightHand
							{
								OFFSET -3.444170 -0.000000 -0.000000
								CHANNELS 3 Zrotation Yrotation Xrotation
								JOINT RightFingerBase
								{
									OFFSET 0.000000 0.000000 0.000000
									CHANNELS 3 Zrotation Yrotation Xrotation
									JOINT RightHandIndex1
									{
										OFFSET -0.622530 -0.000000 -0.000000
										CHANNELS 3 Zrotation Yrotation Xrotation
										End Site
										{
											OFFSET 0.000000 0.000000 0.000000
										}
									}
								}
								JOINT RThumb
								{
									OFFSET 0.000000 0.000000 0.000000
									CHANNELS 3 Zrotation Yrotation Xrotation
									End Site
									{
										OFFSET 0.000000 0.000000 0.000000
									}
								}
							}
						}
					}
				}
			}
		}
	}
}
MOTION
Frames: 10
Frame Time: 0.008333
-11.814615 17.750755 -5.858022 -35.958112 81.331964 1.824534 6.208454 -2.018526 -4.087623 2.788184 -21.147452 -43.539818 -1.763099 11.609354 22.175622 -1.413300 11.729515 -13.015129 1.168100 -6.860600 -19.303000 -10.505750 0.765658 -2.187682 16.664810 20.554743 -40.780451 2.874382 -7.874675 13.567871 0.524145 -12.743022 -4.400382 -1.398000 7.479700 -21.144500 -6.113304 3.190590 37.237998 0.593562 3.384534 1.028065 0.472612 1.166059 -2.132103 -3.384238 -2.017159 -7.072427 5.660310 -2.222200 12.706942 0.867500 -0.695400 9.574000 3.747895 -2.135932 0.780402 -44.929560 -38.426184 14.842176 83.896320 -55.941008 -58.216066 -0.467222 -0.903608 -0.935109 74.175994 52.032335 71.060500 -7.125000 0.000000 0.000000 161.215200 -70.829000 -168.293900 -4.026961 1.907577 -0.481134 74.385134 24.381662 47.318626 -117.198592 57.109902 -83.552096 0.848458 -0.989202 2.461920 -34.930419 19.192350 -13.952500 7.125000 0.000000 0.000000 -4.641900 -5.720100 -4.170100 
-11.811123 17.751254 -5.851836 -36.567164 81.489620 1.127565 6.219553 -1.998135 -4.069733 2.755906 -21.188827 -43.477870 -1.766394 11.593651 22.140706 -1.396313 11.637830 -12.961551 1.180900 -6.896900 -19.410200 -10.472974 0.782545 -2.199455 16.704321 20.468415 -40.720505 2.868242 -7.932764 13.740756 0.547983 -12.852425 -4.568835 -1.362500 7.388200 -20.870500 -6.034995 3.145279 37.315348 0.605635 3.354333 1.024884 0.494956 1.155112 -2.173612 -3.432256 -2.055729 -7.039239 5.771991 -2.266083 12.670416 0.935000 -0.712300 9.547600 3.746091 -2.128666 0.779480 -44.981867 -38.472786 14.900721 83.882963 -55.934343 -58.200183 -0.465932 -0.902770 -0.722922 73.952636 52.179662 70.820900 -7.125000 0.000000 0.000000 161.509700 -70.941700 -168.435700 -4.036412 1.924286 -0.478095 74.726118 24.215108 46.926926 -117.160583 57.107373 -83.566136 0.921662 -0.917797 0.383423 -35.946204 17.721871 -13.475400 7.125000 0.000000 0.000000 -5.561700 -7.220000 -4.842000 
-11.808429 17.749957 -5.847546 -37.457600 81.612313 0.204032 6.248476 -1.972004 -4.051131 2.811629 -21.261708 -43.480489 -1.764948 11.593460 22.127171 -1.380838 11.561916 -12.918586 1.169900 -6.865700 -19.318000 -10.430428 0.800396 -2.214364 16.881716 20.218094 -40.743669 2.856500 -7.973504 13.876821 0.541187 -12.696326 -4.631986 -1.304700 7.236000 -20.416400 -5.923120 3.081532 37.339264 0.617778 3.310828 1.013995 0.501681 1.140589 -2.203932 -3.448973 -2.104547 -7.042482 5.843824 -2.327488 12.661217 0.973900 -0.736000 9.547500 3.745575 -2.118955 0.776572 -45.071287 -38.470439 14.980573 84.041268 -55.947750 -58.340561 -0.460047 -0.903506 -0.822695 73.719883 52.183868 70.539200 -7.125000 0.000000 0.000000 161.484300 -71.098600 -168.355800 -4.045861 1.939190 -0.477844 75.115925 23.999744 46.559306 -117.177476 57.089027 -83.627235 0.993927 -0.842460 -1.261527 -37.330548 16.056770 -12.951300 7.125000 0.000000 0.000000 -6.764000 -8.904200 -5.676300 
-11.806034 17.747862 -5.846049 -37.918043 81.675289 -0.267375 6.264410 -1.958765 -4.040845 2.843668 -21.305737 -43.503154 -1.762854 11.604175 22.144115 -1.373939 11.535594 -12.963830 1.190900 -6.925000 -19.493400 -10.405308 0.805522 -2.224544 17.051263 19.973388 -40.784086 2.845652 -7.991995 13.951594 0.523874 -12.486745 -4.606377 -1.286400 7.187000 -20.270600 -5.858589 3.043782 37.336582 0.621364 3.282150 1.005355 0.478709 1.132282 -2.216213 -3.394327 -2.147918 -7.075188 5.816790 -2.396487 12.665900 0.941300 -0.763000 9.563700 3.754101 -2.121843 0.767026 -45.168621 -38.609293 15.177321 84.180583 -55.949238 -58.453985 -0.448719 -0.892038 -0.898991 73.067810 51.704769 69.630400 -7.125000 0.000000 0.000000 160.193600 -71.686600 -167.271000 -4.056066 1.946576 -0.483136 75.448831 23.797761 46.150527 -117.540496 57.017457 -83.903865 0.936454 -0.909582 -2.415961 -35.181963 18.848028 -13.858200 7.125000 0.000000 0.000000 -4.862700 -6.056200 -4.338600 
-11.802543 17.744470 -5.844952 -37.961504 81.695620 -0.327496 6.263245 -1.958804 -4.031238 2.943911 -21.475871 -43.483375 -1.765246 11.628741 22.176315 -1.393693 11.659845 -13.169360 1.192900 -6.930400 -19.509400 -10.399770 0.807609 -2.231092 17.113658 19.882616 -40.797829 2.841013 -8.007993 14.003900 0.520784 -12.449516 -4.580526 -1.356600 7.372700 -20.824400 -5.909197 3.019511 37.312104 0.632527 3.243775 1.006462 0.554620 1.108905 -2.191964 -3.429383 -2.146827 -7.155412 5.768860 -2.384943 12.687830 0.919500 -0.763600 9.597400 3.758773 -2.130558 0.757581 -45.317151 -38.807516 15.270614 84.042386 -55.915383 -58.318820 -0.446457 -0.866026 -0.271990 72.595562 51.167355 68.909700 -7.125000 0.000000 0.000000 158.698400 -72.177800 -166.058500 -4.050123 1.950261 -0.479295 75.408637 23.658926 46.431769 -117.024351 57.144891 -83.448217 0.908763 -0.953086 1.864443 -36.286266 18.064239 -13.880400 7.125000 0.000000 0.000000 -5.720100 -6.716700 -5.037600 
-11.798552 17.741377 -5.843555 -38.225715 81.699001 -0.659075 6.265718 -1.947028 -4.020623 2.961794 -21.533915 -43.404062 -1.759925 11.646894 22.228929 -1.390575 11.648523 -13.304743 1.159400 -6.836100 -19.230600 -10.383913 0.816473 -2.237693 17.194395 19.830065 -40.743836 2.836640 -8.022390 14.059622 0.520122 -12.417354 -4.586608 -1.410400 7.511500 -21.239700 -5.963401 2.987748 37.343011 0.651560 3.198065 1.009750 0.681898 1.080249 -2.191973 -3.562573 -2.129973 -7.185313 5.767823 -2.333206 12.698046 0.947300 -0.753100 9.610600 3.755814 -2.131791 0.756863 -45.543188 -38.856843 15.159963 84.003121 -55.901195 -58.288045 -0.452087 -0.856133 0.366485 72.805596 51.375198 69.210300 -7.125000 0.000000 0.000000 159.277800 -71.976300 -166.537500 -4.035912 1.955578 -0.470542 75.063995 23.663111 46.993779 -116.164691 57.350249 -82.694047 0.866864 -1.005833 6.239867 -37.368409 17.733254 -14.180200 7.125000 0.000000 0.000000 -6.478800 -6.845400 -5.697800 
-11.793364 17.740479 -5.842857 -38.398740 81.680185 -0.960557 6.259243 -1.926596 -4.018381 2.703618 -21.265495 -43.283805 -1.742333 11.649280 22.321352 -1.342381 11.370185 -13.272577 1.133200 -6.760800 -19.008600 -10.365357 0.820332 -2.242756 17.295790 19.774318 -40.607269 2.831445 -8.030134 14.112159 0.520309 -12.358146 -4.629147 -1.377000 7.425800 -20.983300 -6.037811 2.953033 37.454583 0.669450 3.138177 1.018990 0.801148 1.047040 -2.216680 -3.643747 -2.080425 -7.121548 5.725496 -2.261125 12.626855 0.936800 -0.735300 9.550600 3.752738 -2.134825 0.769271 -45.786104 -38.729000 14.853391 84.068189 -55.911057 -58.363149 -0.455628 -0.859841 0.691774 73.028007 51.857047 69.598000 -7.125000 0.000000 0.000000 160.541900 -71.681700 -167.502000 -4.016403 1.946023 -0.459206 74.619858 23.730255 48.064698 -115.742217 57.446836 -82.297350 0.841197 -1.037803 6.338549 -37.385365 19.099286 -15.151600 7.125000 0.000000 0.000000 -6.216700 -5.184900 -5.663600 
-11.787677 17.740978 -5.842158 -38.356915 81.630159 -1.058146 6.245756 -1.913425 -4.017097 2.490896 -21.059374 -43.152687 -1.725385 11.660763 22.426054 -1.311430 11.187154 -13.283939 1.092300 -6.641700 -18.658200 -10.354061 0.817630 -2.248028 17.417829 19.713762 -40.460422 2.825410 -8.039887 14.171641 0.518568 -12.285645 -4.659910 -1.346000 7.345200 -20.742100 -6.147311 2.924317 37.583695 0.675168 3.066259 1.031088 0.885693 1.010543 -2.233573 -3.668438 -2.023370 -7.060554 5.682674 -2.196472 12.510307 0.911800 -0.717600 9.463500 3.743403 -2.137321 0.789913 -45.886934 -38.465667 14.502517 84.055304 -55.924886 -58.370457 -0.456919 -0.858380 0.978974 73.037634 52.026737 69.648600 -7.125000 0.000000 0.000000 160.967000 -71.624900 -167.804600 -3.997330 1.930112 -0.447301 74.169069 23.838466 49.315110 -115.351657 57.530270 -81.925725 0.826408 -1.062784 5.864769 -37.539511 20.527970 -16.225000 7.125000 0.000000 0.000000 -6.016700 -3.421600 -5.678700 
-11.783287 17.740978 -5.840662 -38.220001 81.561054 -1.016261 6.239145 -1.908332 -4.023481 2.346537 -20.863957 -43.106452 -1.705234 11.683718 22.542628 -1.288577 11.051246 -13.253559 1.070300 -6.576800 -18.467600 -10.349866 0.804123 -2.251234 17.618770 19.564974 -40.406438 2.815145 -8.054312 14.238155 0.498088 -12.055184 -4.621234 -1.351400 7.359300 -20.784200 -6.169532 2.928267 37.640826 0.634071 3.039567 1.040353 0.763092 1.008921 -2.210237 -3.664908 -2.111117 -7.083425 5.808867 -2.320767 12.444044 0.976300 -0.766800 9.431000 3.715880 -2.119507 0.799437 -45.721608 -38.257982 14.378519 84.147414 -55.956946 -58.459336 -0.452323 -0.862620 0.987602 72.776479 52.197772 69.375500 -7.125000 0.000000 0.000000 161.350600 -71.748900 -168.005200 -4.005862 1.935952 -0.436125 73.852093 23.864033 50.368657 -115.001152 57.595670 -81.589376 0.815275 -1.092472 5.745513 -38.049128 21.824163 -17.410100 7.125000 0.000000 0.000000 -6.049100 -1.712700 -5.898900 
-11.779895 17.740878 -5.835174 -37.953309 81.481659 -0.865154 6.233491 -1.894470 -4.041636 1.987536 -20.341688 -43.114116 -1.667054 11.703375 22.713652 -1.215323 10.623790 -12.987885 1.091900 -6.640600 -18.655000 -10.347704 0.784647 -2.252258 17.867212 19.378087 -40.331825 2.804358 -8.057984 14.285251 0.472486 -11.765674 -4.571419 -1.357700 7.375700 -20.833200 -6.251507 2.964132 37.678638 0.586750 3.039512 1.062720 0.652612 1.016882 -2.146642 -3.684892 -2.267527 -7.123050 5.978989 -2.533898 12.352015 1.062600 -0.855800 9.388700 3.685264 -2.099115 0.809989 -45.398359 -38.082104 14.285372 84.233271 -55.992946 -58.542308 -0.449606 -0.870685 0.794527 72.696707 52.339403 69.317400 -7.125000 0.000000 0.000000 161.698500 -71.755600 -168.230800 -4.024807 1.944410 -0.426755 73.663537 23.908112 50.725878 -115.082042 57.583953 -81.624779 0.758686 -1.134371 7.363387 -37.459166 22.614294 -17.591800 7.125000 0.000000 0.000000 -5.517300 -0.956200 -5.449900 
